<?xml version="1.0" standalone="no"?>
<!DOCTYPE svg PUBLIC "-//W3C//DTD SVG 1.1//EN" "http://www.w3.org/Graphics/SVG/1.1/DTD/svg11.dtd" >
<svg xmlns="http://www.w3.org/2000/svg">
<metadata>Generated by IcoMoon</metadata>
<defs>
<font id="icomoon" horiz-adv-x="1024">
<font-face units-per-em="1024" ascent="960" descent="-64" />
<missing-glyph horiz-adv-x="1024" />
<glyph unicode="&#x20;" horiz-adv-x="512" d="" />
<glyph unicode="&#xea900;" glyph-name="ml" d="M952.32 663.040h-266.24c-35.84 0-66.56 25.6-66.56 56.32v199.68h61.44v-194.56c0-5.12 5.12-5.12 10.24-5.12h266.24v-56.32zM901.12-38.4h-778.24c-40.96 0-71.68 25.6-71.68 56.32v860.16c0 30.72 30.72 56.32 71.68 56.32h286.72c15.36 0 30.72-10.24 30.72-25.6s-15.36-25.6-30.72-25.6h-286.72c-5.12 0-10.24-5.12-10.24-5.12v-860.16c0-5.12 5.12-5.12 10.24-5.12h783.36c5.12 0 10.24 5.12 10.24 5.12v675.84l-266.24 189.44h-250.88c-15.36 0-30.72 10.24-30.72 25.6s15.36 25.6 30.72 25.6h256c5.12 0 15.36 0 20.48-5.12l286.72-204.8c5.12-5.12 10.24-10.24 10.24-20.48v-686.080c0-30.72-30.72-56.32-71.68-56.32v0zM322.56 883.2h-51.2c-20.48 0-35.84 10.24-35.84 25.6s15.36 25.6 30.72 25.6h51.2c15.36 0 30.72-10.24 30.72-25.6 5.12-15.36-10.24-25.6-25.6-25.6v0zM245.76 719.36h46.080c10.24 0 20.48-5.12 20.48-15.36v-40.96c0-5.12-10.24-10.24-20.48-10.24h-46.080c-10.24 0-20.48 5.12-20.48 15.36v35.84c0 10.24 10.24 15.36 20.48 15.36v0zM399.36 709.12h133.12c15.36 0 30.72-10.24 30.72-25.6s-15.36-25.6-30.72-25.6h-133.12c-15.36 0-30.72 10.24-30.72 25.6s10.24 25.6 30.72 25.6v0zM245.76 565.76h46.080c10.24 0 20.48-5.12 20.48-15.36v-40.96c0-10.24-10.24-15.36-20.48-15.36h-46.080c-10.24 0-20.48 5.12-20.48 15.36v40.96c0 5.12 10.24 15.36 20.48 15.36v0zM399.36 555.52h378.88c15.36 0 30.72-10.24 30.72-25.6s-15.36-25.6-30.72-25.6h-378.88c-15.36 0-30.72 10.24-30.72 25.6s10.24 25.6 30.72 25.6v0zM245.76 407.040h46.080c10.24 0 20.48-5.12 20.48-15.36v-40.96c0-10.24-10.24-15.36-20.48-15.36h-46.080c-10.24 0-20.48 5.12-20.48 15.36v40.96c0 10.24 10.24 15.36 20.48 15.36v0zM399.36 401.92h378.88c15.36 0 30.72-10.24 30.72-25.6s-15.36-25.6-30.72-25.6h-378.88c-15.36 0-30.72 10.24-30.72 25.6 0 10.24 10.24 25.6 30.72 25.6v0zM245.76 253.44h46.080c10.24 0 20.48-5.12 20.48-15.36v-40.96c0-10.24-10.24-15.36-20.48-15.36h-46.080c-10.24 0-20.48 5.12-20.48 15.36v40.96c0 10.24 10.24 15.36 20.48 15.36v0zM399.36 243.2h378.88c15.36 0 30.72-10.24 30.72-25.6s-15.36-25.6-30.72-25.6h-378.88c-15.36 0-30.72 10.24-30.72 25.6s10.24 25.6 30.72 25.6v0z" />
<glyph unicode="&#xea901;" glyph-name="delete" d="M307.2 601.6h61.44v-445.44h-61.44v445.44zM481.28 601.6h61.44v-445.44h-61.44v445.44zM660.48 601.6h61.44v-445.44h-61.44v445.44zM972.8 765.44h-281.6v117.76c0 5.12-5.12 15.36-5.12 15.36 0 5.12-5.12 10.24-15.36 10.24h-317.44c-15.36 0-20.48-10.24-20.48-20.48v-117.76h-281.6v-66.56h87.040v-686.080c0-15.36 15.36-30.72 30.72-30.72h680.96c15.36 0 30.72 15.36 30.72 30.72v686.080h87.040l5.12 61.44zM394.24 765.44v76.8h240.64v-76.8h-240.64zM824.32 704v-655.36h-624.64v655.36h624.64z" />
<glyph unicode="&#xea902;" glyph-name="upload" d="M378.88 371.2l102.4 117.76v-353.28c0-15.36 10.24-30.72 30.72-30.72s30.72 10.24 30.72 30.72v348.16l102.4-117.76c10.24-10.24 30.72-10.24 40.96 0s10.24 30.72 0 40.96l-148.48 174.080c-5.12 5.12-15.36 10.24-25.6 10.24s-20.48-5.12-25.6-10.24l-148.48-174.080c-10.24-10.24-10.24-30.72 0-40.96 10.24-5.12 30.72-5.12 40.96 5.12v0zM849.92 908.8h-675.84c-66.56 0-122.88-51.2-122.88-117.76v-691.2c0-61.44 56.32-112.64 122.88-112.64h675.84c66.56 0 122.88 51.2 122.88 112.64v691.2c0 66.56-56.32 117.76-122.88 117.76v0zM911.36 99.84c0-30.72-25.6-56.32-61.44-56.32h-675.84c-35.84 0-61.44 25.6-61.44 56.32v578.56h798.72v-578.56zM911.36 734.72h-798.72v56.32c0 30.72 25.6 56.32 61.44 56.32h675.84c35.84 0 61.44-25.6 61.44-56.32v-56.32z" />
<glyph unicode="&#xea903;" glyph-name="pass" d="M35.84 478.72c0 138.24 0 189.44 0 327.68 0 117.76 66.56 128 128 128h517.12c102.4 0 133.12-35.84 133.12-128v-66.56c0-51.2-66.56-46.080-66.56 0v61.44c0 46.080-15.36 66.56-66.56 66.56h-517.12c-51.2 0-66.56-5.12-66.56-66.56v-650.24c0-35.84 20.48-66.56 66.56-66.56 76.8 0 51.2 0 128 0 40.96 0 40.96-66.56 0-66.56s-76.8 0-153.6 0c-46.080 0-87.040 25.6-97.28 71.68-5.12 10.24-5.12 25.6-5.12 35.84 0 143.36 0 215.040 0 353.28zM680.96-38.4c-179.2 0-322.56 143.36-322.56 322.56s143.36 322.56 322.56 322.56c179.2 0 322.56-143.36 322.56-322.56 5.12-179.2-143.36-322.56-322.56-322.56zM680.96 545.28c-143.36 0-261.12-117.76-261.12-256 0-143.36 117.76-261.12 256-261.12 143.36 0 261.12 117.76 261.12 256 5.12 143.36-112.64 261.12-256 261.12zM619.52 739.84c51.2 0 46.080-66.56 0-66.56h-389.12c-51.2 0-46.080 66.56 0 66.56 128 0 337.92 0 389.12 0v0zM291.84 545.28c51.2 0 46.080-66.56 0-66.56h-61.44c-51.2 0-46.080 66.56 0 66.56 128 0 15.36 0 61.44 0v0zM839.68 407.040c-15.36 15.36-40.96 15.36-51.2 0l-163.84-163.84-51.2 51.2c-15.36 15.36-40.96 15.36-51.2 0-15.36-15.36-15.36-40.96 0-51.2l76.8-76.8c5.12-5.12 15.36-10.24 25.6-10.24s20.48 5.12 25.6 10.24c0 0 0 0 5.12 5.12 0 0 0 0 5.12 5.12l184.32 184.32c10.24 5.12 10.24 30.72-5.12 46.080v0z" />
<glyph unicode="&#xea904;" glyph-name="sync" d="M133.12 893.44c-35.84 0-61.44-30.72-61.44-61.44v-768c0-35.84 30.72-61.44 61.44-61.44h768c35.84 0 61.44 30.72 61.44 61.44v768c0 35.84-30.72 61.44-61.44 61.44h-768zM133.12 960h768c71.68 0 128-56.32 128-128v-768c0-71.68-56.32-128-128-128h-768c-71.68 0-128 56.32-128 128v768c0 71.68 56.32 128 128 128v0zM261.12 407.040c-15.36 0-30.72-15.36-30.72-30.72s15.36-30.72 30.72-30.72h517.12c15.36 0 30.72 15.36 30.72 30.72s-15.36 30.72-30.72 30.72h-517.12zM808.96 355.84c5.12 10.24 10.24 20.48 5.12 30.72s-15.36 20.48-25.6 20.48c-10.24 0-20.48-5.12-30.72-10.24l-112.64-148.48c-10.24-15.36-10.24-35.84 5.12-46.080s35.84-10.24 46.080 5.12l112.64 148.48zM783.36 488.96c15.36 0 30.72 15.36 30.72 30.72s-15.36 30.72-30.72 30.72h-522.24c-15.36 0-30.72-15.36-30.72-30.72s15.36-30.72 30.72-30.72h522.24zM235.52 545.28c-10.24-15.36-5.12-35.84 10.24-46.080 10.24-10.24 30.72-10.24 40.96 5.12l112.64 148.48c10.24 5.12 10.24 20.48 5.12 30.72 0 10.24-10.24 15.36-25.6 20.48-10.24 0-20.48-5.12-25.6-15.36l-117.76-143.36z" />
<glyph unicode="&#xea905;" glyph-name="detail" d="M512-64c-281.6 0-512 230.4-512 512s230.4 512 512 512c281.6 0 512-230.4 512-512s-230.4-512-512-512v0zM512 893.44c-245.76 0-450.56-199.68-450.56-450.56 0-245.76 199.68-445.44 450.56-445.44 245.76 0 445.44 199.68 445.44 445.44 0 250.88-199.68 450.56-445.44 450.56v0zM445.44 448c0-35.84 30.72-61.44 66.56-61.44s61.44 30.72 61.44 61.44c0 35.84-30.72 66.56-61.44 66.56-35.84-5.12-66.56-30.72-66.56-66.56v0zM701.44 448c0-35.84 30.72-61.44 61.44-61.44 35.84 0 66.56 30.72 66.56 61.44 0 35.84-30.72 66.56-66.56 66.56-30.72-5.12-61.44-30.72-61.44-66.56v0zM189.44 448c0-35.84 30.72-61.44 61.44-61.44 35.84 0 61.44 30.72 61.44 61.44 0 35.84-30.72 66.56-61.44 66.56-30.72-5.12-61.44-30.72-61.44-66.56v0z" />
<glyph unicode="&#xea906;" glyph-name="preview" horiz-adv-x="1274" d="M636.938 837.512c-308.67 0-563.445-391.962-563.445-391.962s249.876-391.962 563.445-391.962c308.67 0 563.445 391.962 563.445 391.962s-254.775 391.962-563.445 391.962v0zM636.938 122.182c-225.378 0-421.359 230.278-489.952 323.368 68.593 93.091 264.574 323.368 489.952 323.368s421.359-230.278 489.952-323.368c-68.593-93.091-264.574-323.368-489.952-323.368v0zM636.938 661.129c-102.89 0-181.282-93.091-181.282-210.679s83.292-210.679 181.282-210.679c102.89 0 181.282 93.091 181.282 210.679 0 112.689-78.392 210.679-181.282 210.679v0zM636.938 303.464c-68.593 0-127.388 63.694-127.388 146.986 0 78.392 58.794 146.986 127.388 146.986s127.388-63.694 127.388-146.986c0-83.292-58.794-146.986-127.388-146.986v0z" />
<glyph unicode="&#xea907;" glyph-name="data" horiz-adv-x="1274" d="M445.856 435.751v0c-34.297 0-63.694 14.699-88.191 39.196-19.598 29.397-29.397 63.694-19.598 97.99 9.799 39.196 44.096 73.493 83.292 83.292s83.292-4.9 112.689-39.196c19.598-24.498 29.397-58.794 19.598-93.091-9.799-39.196-44.096-73.493-83.292-83.292-9.799-4.9-14.699-4.9-24.498-4.9v0zM445.856 617.033c-4.9 0-9.799 0-14.699 0-24.498-4.9-44.096-24.498-48.995-48.995-9.799-24.498-4.9-48.995 9.799-63.694s34.297-24.498 53.895-24.498c4.9 0 9.799 0 14.699 0 24.498 4.9 44.096 24.498 48.995 48.995 4.9 19.598 0 44.096-14.699 58.794-9.799 19.598-29.397 29.397-48.995 29.397v0zM818.22 136.88v0c-39.196 0-78.392 19.598-97.99 53.895s-19.598 78.392 4.9 117.589c9.799 14.699 19.598 24.498 29.397 29.397 19.598 9.799 39.196 19.598 63.694 19.598 39.196 0 78.392-19.598 97.99-53.895s19.598-78.392-4.9-117.589c-4.9-14.699-19.598-24.498-29.397-29.397-19.598-14.699-39.196-19.598-63.694-19.598v0zM818.22 318.163c-14.699 0-29.397-4.9-39.196-9.799-4.9-4.9-9.799-9.799-14.699-14.699-14.699-24.498-14.699-53.895-4.9-73.493s34.297-34.297 58.794-34.297v0c14.699 0 29.397 4.9 39.196 9.799 4.9 4.9 9.799 9.799 14.699 14.699 14.699 24.498 14.699 53.895 4.9 73.493s-34.297 34.297-58.794 34.297v0zM685.933 298.565l-151.885 127.388 29.397 34.297 151.885-127.388-29.397-34.297zM137.187 131.981v0c-34.297 0-63.694 14.699-88.191 39.196-19.598 24.498-29.397 58.794-19.598 93.091 9.799 39.196 44.096 73.493 83.292 83.292 44.096 9.799 83.292-4.9 112.689-39.196 19.598-24.498 24.498-58.794 19.598-93.091-9.799-39.196-44.096-73.493-83.292-83.292-9.799 0-14.699 0-24.498 0v0zM137.187 308.364c-4.9 0-9.799 0-14.699 0-24.498-4.9-44.096-24.498-48.995-48.995-4.9-19.598 0-44.096 14.699-58.794s34.297-24.498 53.895-24.498v0c4.9 0 9.799 0 14.699 0 24.498 4.9 44.096 24.498 48.995 48.995 4.9 19.598 0 44.096-14.699 58.794s-34.297 24.498-53.895 24.498v0zM1136.689 543.541v0c-34.297 0-63.694 14.699-88.191 39.196-19.598 29.397-24.498 63.694-19.598 97.99 9.799 39.196 44.096 73.493 83.292 83.292 44.096 9.799 83.292-4.9 112.689-39.196 19.598-24.498 29.397-58.794 19.598-93.091-9.799-39.196-44.096-73.493-83.292-83.292-4.9-4.9-14.699-4.9-24.498-4.9v0zM1136.689 719.923c-4.9 0-9.799 0-14.699 0-24.498-4.9-44.096-24.498-48.995-48.995-4.9-19.598 0-44.096 14.699-58.794s34.297-24.498 53.895-24.498v0c4.9 0 9.799 0 14.699 0 24.498 4.9 44.096 24.498 48.995 48.995 4.9 19.598 0 44.096-14.699 58.794-14.699 19.598-34.297 24.498-53.895 24.498v0zM911.311 367.158l-34.297 29.397 151.885 166.584 34.297-29.397-151.885-166.584zM240.077 318.163l-29.397 34.297 132.287 107.789 29.397-34.297-132.287-107.789z" />
<glyph unicode="&#xea908;" glyph-name="know" d="M163.84 852.48c-35.84 0-61.44-25.6-61.44-61.44v-691.2c0-30.72 25.6-56.32 56.32-56.32h256c30.72 0 56.32 25.6 56.32 56.32v691.2c0 30.72-25.6 56.32-56.32 56.32h-250.88zM163.84 908.8h256c61.44 0 112.64-51.2 112.64-112.64v-691.2c0-61.44-51.2-112.64-112.64-112.64h-256c-61.44 0-112.64 51.2-112.64 112.64v686.080c-5.12 66.56 46.080 117.76 112.64 117.76v0zM189.44 591.36c-15.36 0-30.72 10.24-30.72 30.72 0 15.36 15.36 30.72 30.72 30.72h220.16c15.36 0 30.72-15.36 30.72-30.72s-15.36-30.72-30.72-30.72h-220.16zM189.44 417.28c-15.36 0-30.72 15.36-30.72 30.72s15.36 30.72 30.72 30.72h168.96c15.36 0 30.72-15.36 30.72-30.72s-15.36-30.72-30.72-30.72h-168.96zM189.44 243.2c-15.36 0-30.72 15.36-30.72 30.72s15.36 30.72 30.72 30.72h117.76c15.36 0 30.72-15.36 30.72-30.72s-15.36-30.72-30.72-30.72h-117.76zM599.040 852.48c-30.72 0-56.32-25.6-56.32-56.32v-691.2c0-30.72 25.6-56.32 56.32-56.32h256c30.72 0 56.32 25.6 56.32 56.32v686.080c0 30.72-25.6 56.32-56.32 56.32h-256zM599.040 908.8h256c61.44 0 112.64-51.2 112.64-112.64v-691.2c0-61.44-51.2-112.64-112.64-112.64h-256c-61.44 0-112.64 51.2-112.64 112.64v686.080c-5.12 66.56 46.080 117.76 112.64 117.76v0zM624.64 591.36c-15.36 0-30.72 15.36-30.72 30.72s15.36 30.72 30.72 30.72h215.040c15.36 0 30.72-15.36 30.72-30.72s-15.36-30.72-30.72-30.72h-215.040zM624.64 417.28c-15.36 0-30.72 15.36-30.72 30.72s15.36 30.72 30.72 30.72h168.96c15.36 0 30.72-15.36 30.72-30.72s-15.36-30.72-30.72-30.72h-168.96zM624.64 243.2c-15.36 0-30.72 15.36-30.72 30.72s15.36 30.72 30.72 30.72h112.64c15.36 0 30.72-15.36 30.72-30.72s-15.36-30.72-30.72-30.72h-112.64z" />
<glyph unicode="&#xea909;" glyph-name="reject" d="M947.2 74.24c-10.24 0-20.48 5.12-20.48 15.36 0 0-15.36 66.56-76.8 128-76.8 81.92-194.56 128-343.040 128v-174.080c0-10.24-5.12-15.36-10.24-20.48s-15.36-5.12-20.48 0l-419.84 307.2c-5.12 5.12-10.24 10.24-10.24 15.36s5.12 15.36 10.24 15.36l414.72 302.080c5.12 5.12 15.36 5.12 20.48 0s10.24-10.24 10.24-20.48v-184.32c25.6 0 71.68-5.12 128-20.48 87.040-20.48 158.72-61.44 209.92-117.76 81.92-87.040 128-204.8 122.88-358.4 5.12-5.12 0-15.36-15.36-15.36 0 0 0 0 0 0v0zM486.4 391.68c97.28 0 179.2-15.36 250.88-46.080 56.32-25.6 107.52-56.32 148.48-102.4 15.36-15.36 25.6-25.6 35.84-40.96-15.36 87.040-51.2 158.72-102.4 215.040-117.76 117.76-291.84 122.88-322.56 122.88-5.12 0-5.12 0-5.12 0-5.12 0-10.24 0-15.36 5.12-10.24 10.24-15.36 20.48-15.36 25.6v163.84l-358.4-261.12 358.4-256v153.6c0 15.36 10.24 20.48 25.6 20.48v0z" />
<glyph unicode="&#xea90a;" glyph-name="export" d="M911.36 48.64v430.080h61.44v-491.52h-921.6v491.52h61.44v-430.080h798.72zM972.8 48.64l-61.44-61.44v61.44h61.44zM112.64-12.8l-61.44 61.44h61.44v-61.44zM911.36 478.72h61.44v-491.52h-921.6v491.52h61.44v-430.080h798.72v430.080zM112.64-12.8l-61.44 61.44h61.44v-61.44zM972.8 48.64l-61.44-61.44v61.44h61.44zM481.28 847.36h61.44v-675.84h-61.44v675.84zM517.12 908.8l271.36-271.36-40.96-40.96-271.36 271.36 40.96 40.96zM245.76 637.44l271.36 271.36 40.96-40.96-266.24-276.48-46.080 46.080z" />
<glyph unicode="&#xea90b;" glyph-name="fenfa" d="M972.8 934.4h-701.44c-15.36 0-30.72-15.36-30.72-30.72v-225.28h-179.2c-15.36 0-30.72-15.36-30.72-30.72v-655.36c0-15.36 15.36-30.72 30.72-30.72h655.36c15.36 0 30.72 15.36 30.72 30.72v179.2h225.28c15.36 0 30.72 15.36 30.72 30.72v701.44c0 15.36-15.36 30.72-30.72 30.72v0zM942.080 232.96h-471.040c-15.36 0-30.72-15.36-30.72-30.72s15.36-30.72 30.72-30.72h215.040v-148.48h-593.92v593.92h148.48v-209.92c0-15.36 15.36-30.72 30.72-30.72s30.72 15.36 30.72 30.72v465.92h640v-640zM752.64 724.48h-307.2c-15.36 0-25.6-10.24-25.6-25.6s10.24-25.6 25.6-25.6h225.28l-302.080-296.96c-10.24-10.24-15.36-30.72 0-46.080 5.12-5.12 15.36-10.24 25.6-10.24s15.36 5.12 20.48 10.24l307.2 302.080v-240.64c0-15.36 10.24-25.6 25.6-25.6s25.6 10.24 25.6 25.6v307.2c10.24 10.24-5.12 25.6-20.48 25.6z" />
<glyph unicode="&#xea90c;" glyph-name="un-essence" horiz-adv-x="922" d="M40.96 878.080l844.8-819.2zM885.76 23.040c-10.24 0-20.48 5.12-25.6 10.24l-844.8 819.2c-15.36 15.36-15.36 35.84-5.12 51.2 0 0 0 0 0 0 15.36 15.36 35.84 15.36 51.2 0l844.8-824.32c15.36-15.36 15.36-35.84 0-51.2 0 0 0 0 0 0-5.12-5.12-10.24-5.12-20.48-5.12v0zM245.76 826.88c61.44 51.2 138.24 76.8 215.040 76.8 179.2 5.12 327.68-138.24 332.8-312.32 0-76.8-30.72-153.6-81.92-209.92l148.48-143.36-81.92 133.12c51.2 61.44 81.92 138.24 81.92 220.16-10.24 209.92-189.44 373.76-399.36 368.64v0c-97.28 0-189.44-30.72-261.12-92.16l46.080-40.96zM757.76 135.68l-56.32-5.12-97.28-117.76-128 209.92c51.2 0 107.52 15.36 153.6 35.84l-40.96 40.96c-40.96-15.36-87.040-25.6-128-25.6-179.2-5.12-322.56 138.24-327.68 312.32 0 40.96 10.24 87.040 25.6 122.88l-51.2 51.2c-30.72-51.2-46.080-112.64-46.080-168.96 0-87.040 30.72-174.080 87.040-240.64l-153.6-225.28 204.8-35.84 117.76-153.6 143.36 225.28 138.24-215.040 117.76 143.36 76.8 15.36-35.84 30.72zM317.44 17.92l-92.16 112.64-153.6 20.48 112.64 168.96c71.68-66.56 158.72-102.4 256-102.4l-122.88-199.68zM373.76 704c25.6 15.36 56.32 25.6 87.040 25.6 81.92 0 148.48-61.44 148.48-143.36 0-30.72-10.24-56.32-25.6-81.92l46.080-40.96c30.72 35.84 46.080 76.8 46.080 122.88-5.12 112.64-97.28 199.68-209.92 199.68 0 0 0 0-5.12 0-46.080 0-92.16-15.36-128-40.96l40.96-40.96zM445.44 437.76c-71.68 5.12-128 61.44-133.12 128l-61.44 56.32c0-10.24 0-25.6-5.12-35.84 5.12-112.64 97.28-204.8 209.92-199.68 0 0 0 0 0 0 10.24 0 25.6 0 35.84 5.12l-46.080 46.080z" />
<glyph unicode="&#xea90d;" glyph-name="essence" horiz-adv-x="884" d="M437.527 783.127c-111.709 0-200.145-93.091-195.491-200.145s93.091-200.145 200.145-195.491c107.055 0 195.491 88.436 195.491 200.145 0 107.055-88.436 195.491-200.145 195.491 0 0 0 0 0 0zM437.527 438.691c-79.127 0-139.636 60.509-139.636 139.636 0 0 0 4.655 0 4.655 0 79.127 65.164 144.291 139.636 144.291s144.291-65.164 144.291-144.291c4.655-79.127-55.855-144.291-134.982-144.291 0 0-4.655 0-9.309 0v0zM735.418 368.873c51.2 79.127 79.127 121.018 79.127 218.764 0 204.8-167.564 372.364-372.364 372.364 0 0-4.655 0-4.655 0v0c-204.8 0-372.364-167.564-377.018-372.364 0-88.436 27.927-172.218 83.782-242.036l-144.291-223.418 190.836-32.582 116.364-153.6 130.327 223.418 130.327-218.764 116.364 144.291 200.145 37.236-148.945 246.691zM302.545 15.127l-88.436 116.364-144.291 23.273 107.055 172.218c65.164-65.164 153.6-102.4 246.691-107.055l-121.018-204.8zM125.673 587.636c0 172.218 139.636 311.855 311.855 311.855s311.855-139.636 311.855-311.855c0-172.218-139.636-311.855-311.855-311.855 0 0 0 0 0 0-172.218 0-311.855 139.636-311.855 311.855zM665.6 126.836l-93.091-116.364-121.018 209.455c93.091 4.655 186.182 41.891 251.345 111.709l107.055-186.182-144.291-18.618z" />
<glyph unicode="&#xea90e;" glyph-name="an-excuse" horiz-adv-x="1039" d="M71.68 724.48l56.32-61.44c-30.72-56.32-51.2-117.76-51.2-184.32 0-122.88 61.44-240.64 163.84-312.32 20.48-25.6 20.48-25.6 20.48-35.84 0-5.12 0-5.12 0-10.24s-5.12-10.24-5.12-15.36-15.36-35.84-15.36-46.080-15.36-35.84-20.48-46.080c5.12 5.12 35.84 25.6 56.32 35.84 92.16 46.080 102.4 56.32 128 46.080 40.96-10.24 81.92-15.36 117.76-15.36 56.32 0 112.64 10.24 163.84 30.72l61.44-61.44c-71.68-30.72-148.48-46.080-225.28-46.080-46.080 0-92.16 5.12-138.24 15.36 5.12 0-30.72-15.36-76.8-35.84-92.16-46.080-112.64-51.2-143.36-40.96-40.96 20.48-35.84 46.080-10.24 128l10.24 20.48 15.36 35.84c-107.52 87.040-174.080 220.16-174.080 358.4 0 81.92 20.48 163.84 66.56 240.64zM240.64 883.2c87.040 51.2 184.32 76.8 281.6 76.8 286.72 0 522.24-215.040 522.24-481.28 0-107.52-35.84-209.92-102.4-291.84l-51.2 51.2c51.2 66.56 81.92 148.48 81.92 235.52 0 220.16-199.68 404.48-445.44 404.48-76.8 0-153.6-15.36-220.16-51.2l-66.56 56.32zM51.2 852.48c-15.36 15.36-15.36 40.96 0 56.32 0 0 0 0 0 0 15.36 15.36 40.96 15.36 56.32 0 0 0 0 0 0 0l865.28-865.28c15.36-15.36 15.36-40.96 0-56.32 0 0 0 0 0 0-15.36-15.36-40.96-15.36-56.32 0 0 0 0 0 0 0l-865.28 865.28z" />
<glyph unicode="&#xea90f;" glyph-name="un-comment" horiz-adv-x="1075" d="M465.92 494.080c0-40.96 30.72-71.68 71.68-71.68s71.68 30.72 71.68 71.68c0 40.96-30.72 71.68-71.68 71.68v0c-40.96 0-71.68-30.72-71.68-71.68zM537.6 99.84c-51.2 0-102.4 5.12-148.48 20.48l-107.52-66.56v112.64c-122.88 61.44-204.8 189.44-209.92 332.8 0 220.16 209.92 394.24 465.92 394.24s465.92-179.2 465.92-394.24c0-46.080-10.24-92.16-25.6-133.12 20.48-15.36 40.96-30.72 56.32-46.080 25.6 56.32 40.96 117.76 40.96 179.2 0 256-240.64 465.92-537.6 465.92s-537.6-215.040-537.6-471.040c0-148.48 81.92-286.72 209.92-368.64v-163.84c0-25.6 15.36-35.84 35.84-20.48l138.24 102.4c87.040-20.48 174.080-25.6 261.12-10.24-10.24 20.48-20.48 40.96-25.6 66.56-30.72 0-56.32-5.12-81.92 0v0zM747.52 494.080c0-40.96 30.72-71.68 71.68-71.68s71.68 30.72 71.68 71.68c0 35.84-30.72 71.68-66.56 71.68-46.080 0-76.8-30.72-76.8-71.68 0 0 0 0 0 0zM184.32 494.080c0-40.96 30.72-71.68 71.68-71.68s71.68 30.72 71.68 71.68c0 40.96-30.72 71.68-71.68 71.68 0 0 0 0 0 0-40.96 0-71.68-30.72-71.68-71.68zM870.4 320c-102.4 0-184.32-81.92-184.32-184.32s81.92-184.32 184.32-184.32 184.32 81.92 184.32 184.32-81.92 184.32-184.32 184.32v0zM870.4-2.56c-76.8 0-133.12 61.44-133.12 133.12 0 30.72 10.24 61.44 30.72 81.92l189.44-189.44c-30.72-10.24-56.32-20.48-87.040-25.6v0zM988.16 74.24l-179.2 179.2c66.56 30.72 148.48 5.12 179.2-61.44 10.24-20.48 15.36-40.96 15.36-61.44 0-15.36-5.12-35.84-15.36-56.32z" />
<glyph unicode="&#xea910;" glyph-name="comment" horiz-adv-x="1071" d="M1070.149 493.893c0 256.385-239.976 466.107-534.818 466.107s-535.331-209.723-535.331-466.107c4.239-163.897 94.939-305.69 228.019-381.871l2.215-1.168v-147.165c-0.022-0.397-0.034-0.862-0.034-1.329 0-10.266 6.034-19.122 14.748-23.217l0.157-0.066c3.87-2.049 8.424-3.349 13.257-3.586l0.075-0.003c0.058 0 0.126-0.001 0.195-0.001 5.494 0 10.584 1.728 14.757 4.67l-0.081-0.054 68.198 44.098s0 2.564 3.077 2.564l76.915 51.277c33.395-6.852 71.776-10.775 111.073-10.775 0.971 0 1.942 0.002 2.912 0.007l-0.15-0.001c294.842 0 534.818 209.723 534.818 467.133zM281.51 161.618c-121.256 63.477-203.702 186.416-208.679 329.052l-0.018 0.659c0 217.927 207.672 395.345 461.492 395.345s461.492-177.418 461.492-395.345-207.672-395.345-461.492-395.345c-38.979 0.22-76.835 4.504-113.324 12.45l3.591-0.656c-1.817 0.46-3.903 0.724-6.051 0.724-5.622 0-10.821-1.809-15.047-4.878l0.074 0.051-85.632-57.43h-3.077l-19.485-12.819v107.682c0 0.033 0 0.072 0 0.111 0 9.763-5.569 18.226-13.703 22.385l-0.142 0.066zM368.168 472.869c0-36.815-29.845-66.66-66.66-66.66s-66.66 29.845-66.66 66.66c0 36.815 29.845 66.66 66.66 66.66v0c36.585-0.568 66.092-30.075 66.659-66.606l0.001-0.054zM612.759 472.869c0-36.815-29.845-66.66-66.66-66.66s-66.66 29.845-66.66 66.66c0 36.815 29.845 66.66 66.66 66.66v0c36.585-0.568 66.092-30.075 66.659-66.606l0.001-0.054zM853.761 472.869c0-36.815-29.845-66.66-66.66-66.66s-66.66 29.845-66.66 66.66c0 36.815 29.845 66.66 66.66 66.66v0c36.585-0.568 66.092-30.075 66.659-66.606l0.001-0.054z" />
<glyph unicode="&#xea911;" glyph-name="bcircle-end" d="M512 960c-281.6 0-512-230.4-512-512s230.4-512 512-512 512 230.4 512 512c-5.12 281.6-230.4 506.88-512 512zM512 2.56c-240.64 0-440.32 199.68-440.32 440.32s199.68 440.32 440.32 440.32 440.32-199.68 440.32-440.32c0 0 0 0 0 0 0-245.76-194.56-440.32-440.32-440.32 0 0 0 0 0 0zM660.48 627.2h-296.96c-15.36 0-30.72-15.36-30.72-30.72v-296.96c0-15.36 15.36-30.72 30.72-30.72 0 0 0 0 0 0h296.96c15.36 0 30.72 15.36 30.72 30.72v0 296.96c0 15.36-15.36 30.72-30.72 30.72v0zM624.64 560.64v-225.28h-225.28v225.28h225.28z" />
<glyph unicode="&#xea912;" glyph-name="bcircle-shield" d="M358.4 652.8c-5.12 5.12-15.36 10.24-25.6 10.24s-20.48-5.12-25.6-10.24c-15.36-15.36-15.36-35.84 0-51.2 0 0 0 0 0 0l358.4-358.4c5.12-5.12 15.36-10.24 25.6-10.24s20.48 5.12 25.6 10.24c15.36 15.36 15.36 35.84 0 51.2l-358.4 358.4zM983.040 647.68c-25.6 61.44-61.44 117.76-107.52 163.84s-102.4 81.92-163.84 107.52c-128 56.32-271.36 56.32-399.36 0-122.88-51.2-220.16-148.48-271.36-271.36-56.32-128-56.32-271.36 0-399.36 51.2-122.88 148.48-220.16 271.36-271.36 128-56.32 271.36-56.32 399.36 0 122.88 51.2 220.16 148.48 271.36 271.36 25.6 61.44 40.96 133.12 40.96 199.68s-15.36 138.24-40.96 199.68zM952.32 448c0-240.64-199.68-440.32-440.32-440.32s-440.32 199.68-440.32 440.32 199.68 440.32 440.32 440.32v0c240.64 0 440.32-199.68 440.32-440.32z" />
<glyph unicode="&#xea913;" glyph-name="link" d="M532.48 355.84l-35.84-35.84 35.84-35.84c10.24-10.24 10.24-25.6 0-35.84l-225.28-225.28c-10.24-10.24-25.6-10.24-35.84 0l-184.32 184.32c-10.24 10.24-10.24 25.6 0 35.84l220.16 225.28c10.24 10.24 25.6 10.24 35.84 0l35.84-35.84 35.84 35.84-30.72 35.84c-30.72 30.72-81.92 30.72-112.64 0l-220.16-220.16c-30.72-30.72-30.72-81.92 0-112.64l184.32-184.32c30.72-30.72 81.92-30.72 112.64 0l220.16 220.16c30.72 30.72 30.72 81.92 0 112.64l-35.84 35.84zM788.48 913.92c-30.72 30.72-81.92 30.72-112.64 0l-220.16-225.28c-30.72-30.72-30.72-81.92 0-112.64l35.84-35.84 35.84 35.84-35.84 40.96c-10.24 10.24-10.24 25.6 0 35.84l225.28 220.16c10.24 10.24 25.6 10.24 35.84 0l184.32-184.32c10.24-10.24 10.24-25.6 0-35.84l-220.16-225.28c-10.24-10.24-25.6-10.24-35.84 0l-35.84 35.84-35.84-35.84 35.84-35.84c30.72-30.72 81.92-30.72 112.64 0l220.16 220.16c30.72 30.72 30.72 81.92 0 112.64l-189.44 189.44zM363.52 299.52c10.24-10.24 25.6-10.24 35.84 0l261.12 261.12c10.24 10.24 10.24 25.6 0 35.84s-25.6 10.24-35.84 0l-261.12-261.12c-10.24-10.24-10.24-25.6 0-35.84v0z" />
<glyph unicode="&#xea914;" glyph-name="un-preview" d="M992 492.8c-85.033 87.528-193.545 151.809-315.373 182.686l-4.627 0.994-56.96-100.48c112.144-21.099 209.931-72.097 287.722-144.333l-0.362 0.333c4.726-5.115 7.624-11.979 7.624-19.52s-2.898-14.405-7.642-19.539l0.018 0.019c-101.013-93.622-236.724-151.058-385.85-151.058-1.6 0-3.198 0.007-4.794 0.020l0.244-0.002c-30.219 0.216-59.703 2.535-88.547 6.818l3.427-0.418-60.16-104.32c43.63-10.092 93.753-15.917 145.222-16h0.058c188.368 0.382 358.415 78.504 479.824 203.977l0.176 0.183c19.886 20.856 32.122 49.159 32.122 80.32s-12.236 59.464-32.166 80.366l0.044-0.046zM261.12 298.88c-52.73 25.772-98.057 57.191-137.929 94.383l0.329-0.303c-5.544 4.725-9.037 11.715-9.037 19.52s3.493 14.795 9.001 19.49l0.036 0.030c79.666 73.857 181.123 125.262 293.689 143.561l3.271 0.439 69.76 119.68c-180.41-5.222-341.939-81.938-458.034-202.664l-0.206-0.216c-19.886-20.856-32.122-49.159-32.122-80.32s12.236-59.464 32.166-80.366l-0.044 0.046c49.587-50.319 106.752-92.987 169.684-126.193l3.756-1.807zM799.496 914.456c31.529-18.203 42.332-58.519 24.128-90.048l-494.080-855.772c-18.203-31.529-58.519-42.332-90.048-24.128s-42.332 58.519-24.128 90.048l494.080 855.772c18.203 31.529 58.519 42.332 90.048 24.128zM544 576c-88.366 0-160-71.634-160-160s71.634-160 160-160c88.366 0 160 71.634 160 160v0c0 88.366-71.634 160-160 160v0zM544 336c-44.183 0-80 35.817-80 80s35.817 80 80 80c44.183 0 80-35.817 80-80v0c0-44.183-35.817-80-80-80v0z" />
<glyph unicode="&#xea915;" glyph-name="vessence" d="M836.836 355.271v155.876h-86.471v-155.876h-161.564v-86.471h161.564v-162.133h86.471v162.133h155.876v86.471zM484.693 151.040l-92.16 92.16-245.191 244.622c-23.273 28.922-37.354 66.096-37.354 106.559 0 94.257 76.41 170.667 170.667 170.667 2.734 0 5.452-0.064 8.154-0.191l-0.382 0.014c0.682 0.010 1.488 0.015 2.295 0.015 37.611 0 72.381-12.167 100.588-32.779l-0.483 0.337 93.867-92.16 75.093 75.093c31.197 33.075 75.319 53.666 124.25 53.666 94.257 0 170.667-76.41 170.667-170.667 0-15.852-2.161-31.2-6.205-45.764l0.284 1.2 88.747-88.747c18.656 36.829 29.583 80.293 29.583 126.31 0 0.194 0 0.389-0.001 0.583v-0.030c-0.914 158.286-129.44 286.247-287.853 286.247-74.846 0-143.020-28.565-194.216-75.388l0.22 0.198c-52.15 52.292-124.27 84.644-203.947 84.644-159.070 0-288.022-128.952-288.022-288.022 0-79.394 32.123-151.285 84.082-203.384l407.887-407.887 157.013 156.444-82.489 81.351z" />
<glyph unicode="&#xea916;" glyph-name="un-vessence" d="M484.693 102.684l-337.351 337.351c-20.969 28.025-33.575 63.366-33.575 101.651 0 0.663 0.004 1.326 0.011 1.987l-0.001-0.101c-0.067 1.791-0.106 3.895-0.106 6.008 0 94.257 76.41 170.667 170.667 170.667 40.431 0 77.579-14.059 106.821-37.556l-0.332 0.258 18.204-18.773 73.956-73.387 76.8 76.8c31.096 32.279 74.694 52.327 122.974 52.327 94.257 0 170.667-76.41 170.667-170.667 0-1.997-0.034-3.985-0.102-5.965l0.008 0.287c-0.081-13.759-1.736-27.090-4.792-39.877l0.241 1.193 88.747-88.747c18.657 36.83 29.584 80.295 29.584 126.313 0 0.393-0.001 0.786-0.002 1.179v-0.061c0 0.008 0 0.018 0 0.027 0 157.893-126.873 286.154-284.233 288.397l-0.211 0.002c-0.541 0.004-1.181 0.006-1.821 0.006-75.55 0-144.22-29.454-195.154-77.505l0.14 0.13c-51.48 48.851-121.222 78.895-197.981 78.895-158.979 0-287.858-128.878-287.858-287.858 0-0.736 0.003-1.472 0.008-2.207l-0.001 0.113c0-0.036 0-0.078 0-0.12 0-75.547 29.452-144.215 77.5-195.148l-0.131 0.14 407.893-407.893 157.013 156.444-82.489 80.782zM588.8 306.916v-86.471h403.911v86.471z" />
<glyph unicode="&#xea917;" glyph-name="end" d="M828.302 850.204c-8.952 6.149-20.023 9.82-31.951 9.82-30.271 0-55.019-23.642-56.788-53.469l-0.007-0.156c0.27-19.586 9.498-36.964 23.763-48.256l0.131-0.1c90.329-73.592 147.557-184.829 147.557-309.432 0-219.932-178.29-398.222-398.222-398.222s-398.222 178.29-398.222 398.222c0 126.203 58.707 238.694 150.301 311.654l0.808 0.622c11.271 8.568 18.538 21.9 18.773 36.94v0.038c0.194 1.766 0.305 3.814 0.305 5.887 0 31.419-25.47 56.889-56.889 56.889-14.561 0-27.845-5.471-37.907-14.469l0.055 0.048c-116.309-94.619-190.009-237.741-190.009-398.078 0-0.051 0-0.102 0-0.153v0.008c2.883-276.075 221.425-500.179 495-511.963l1.071-0.037c4.683-0.154 10.19-0.241 15.717-0.241 282.77 0 512 229.23 512 512 0 162.799-75.982 307.852-194.418 401.63l-1.068 0.816zM512 391.111c31.419 0 56.889 25.47 56.889 56.889v0 455.111c0 31.419-25.47 56.889-56.889 56.889s-56.889-25.47-56.889-56.889v0-455.111c0-31.419 25.47-56.889 56.889-56.889v0z" />
<glyph unicode="&#xea918;" glyph-name="reply" d="M576 64v192h-128v-192h-256v-128h640v128h-256zM768 576v-103.68c-0.363-119.324-96.996-215.957-216.285-216.32h-79.395c-119.324 0.363-215.957 96.996-216.32 216.285v103.715h-128v-64c0-212.077 171.923-384 384-384s384 171.923 384 384v0 64zM512 960c-106.039 0-192-85.961-192-192v0-256c0-106.039 85.961-192 192-192s192 85.961 192 192v0 256c0 106.039-85.961 192-192 192v0zM576 497.28c-0.356-27.072-22.208-48.924-49.246-49.28h-29.474c-27.072 0.356-48.924 22.208-49.28 49.246v285.474c0.356 27.072 22.208 48.924 49.246 49.28h29.474c27.072-0.356 48.924-22.208 49.28-49.246v-0.034z" />
<glyph unicode="&#xea919;" glyph-name="un-reply" d="M576 64v192h-128v-192h-256v-128h640v128h-256zM448 697.6v102.4c3.247 30.092 28.51 53.314 59.196 53.314 1.691 0 3.366-0.071 5.021-0.209l-0.217 0.015c13.781-0.097 26.598-4.138 37.403-11.049l-0.283 0.169 65.28 92.8c-29.742 15.674-64.987 24.898-102.38 24.96h-0.020c-4.297 0.368-9.298 0.577-14.348 0.577-92.283 0-168.214-70.005-177.587-159.807l-0.065-0.77v-288zM576 545.92v-64c-3.247-30.092-28.51-53.314-59.196-53.314-1.691 0-3.366 0.071-5.021 0.209l0.217-0.015c-2.593-0.318-5.595-0.5-8.64-0.5s-6.047 0.182-8.996 0.535l0.356-0.035-64-93.44c24.096-9.536 52.002-15.155 81.195-15.36h0.085c4.124-0.338 8.927-0.53 13.775-0.53 92.393 0 168.455 69.923 178.155 159.738l0.069 0.792v248.32zM270.72 444.8c-9.077 25.329-14.446 54.554-14.719 84.996l-0.001 0.124v110.080h-128v-128c0.528-70.958 20.447-137.155 54.711-193.691l-0.951 1.691zM768 640v-145.92c-0.363-131.342-106.738-237.717-238.045-238.080h-0.035c-48.599 0.201-94.052 13.487-133.073 36.513l1.233-0.673-78.080-111.36c54.934-32.913 121.183-52.405 191.979-52.48h0.021c212.077 0 384 171.923 384 384v0 128zM742.186 934.043l2.097-1.468c28.375-19.868 35.271-58.977 15.403-87.352l-516.494-737.63c-19.868-28.375-58.977-35.271-87.352-15.403l-2.097 1.468c-28.375 19.868-35.271 58.977-15.403 87.352l516.494 737.63c19.868 28.375 58.977 35.271 87.352 15.403z" />
<glyph unicode="&#xea920;" glyph-name="Shield" d="M150.187 809.813c-92.788-92.676-150.187-220.767-150.187-362.264 0-282.77 229.23-512 512-512s512 229.23 512 512c0 141.497-57.398 269.587-150.181 362.259l-0.005 0.005c-92.632 92.519-220.541 149.736-361.813 149.736s-269.182-57.217-361.819-149.741l0.005 0.005zM230.4 163.556c-72.647 72.16-117.614 172.108-117.614 282.559 0 90.678 30.308 174.277 81.346 241.22l-0.71-0.971 556.942-556.942c-65.973-50.331-149.575-80.64-240.255-80.64-109.036 0-207.838 43.822-279.752 114.815l0.042-0.042zM830.578 206.791l-556.942 559.787c65.299 48.709 147.584 77.986 236.706 77.986 219.932 0 398.222-178.29 398.222-398.222 0-89.122-29.277-171.407-78.738-237.76l0.751 1.054z" />
</font>
</defs>
</svg>
